<svg xmlns="http://www.w3.org/2000/svg" width="114" height="114" viewBox="0 0 114 114">
				<path id="Subtraction_2" data-name="Subtraction 2" d="M-1405.276,1907.013a56.984,56.984,0,0,1-17.121-2.616l11.976-17.1a5.548,5.548,0,0,0,1.669.255,5.567,5.567,0,0,0,5.561-5.561,5.526,5.526,0,0,0-.38-2.023l16.063-9.274a5.587,5.587,0,0,0,4.476,2.26,5.53,5.53,0,0,0,3.156-.982l14.715,17.536,1.065-.893-14.743-17.569a5.555,5.555,0,0,0,1.368-3.653,5.531,5.531,0,0,0-.463-2.227l29.625-17.1c.022.657.033,1.314.033,1.952a56.646,56.646,0,0,1-4.479,22.187,57.021,57.021,0,0,1-5.255,9.682,57.421,57.421,0,0,1-6.96,8.436,57.438,57.438,0,0,1-8.436,6.96,57,57,0,0,1-9.682,5.255A56.643,56.643,0,0,1-1405.276,1907.013Zm-18.5-3.069h0a56.814,56.814,0,0,1-11.681-5.568l22.364-12.912a5.576,5.576,0,0,0,1.39,1.239l-12.072,17.241Zm-13-6.416a57.082,57.082,0,0,1-14.678-14.087l29.056-50.328a5.527,5.527,0,0,0,3.91,1.607,5.559,5.559,0,0,0,4.9-2.924l15.821,18.854a5.557,5.557,0,0,0-1.949,4.229,5.567,5.567,0,0,0,5.561,5.561,5.564,5.564,0,0,0,.89-.071l-12.067,17.235a5.506,5.506,0,0,0-3.42-1.176,5.567,5.567,0,0,0-5.56,5.561,5.513,5.513,0,0,0,.491,2.289l-22.95,13.25Zm-15.561-15.339h0a56.69,56.69,0,0,1-9.943-32.175,57.832,57.832,0,0,1,.432-7.049l38.045-10.194Zm48.1-3.446h0c-.036-.051-.069-.1-.1-.137l13.476-19.246c.076-.056.156-.118.244-.189l3.624,4.318a5.526,5.526,0,0,0-1.6,3.9,5.531,5.531,0,0,0,.4,2.088l-16.047,9.264Zm25.588-14.773h0a5.532,5.532,0,0,0-4.384-2.139,5.553,5.553,0,0,0-2.87.8l-3.755-4.476a5.517,5.517,0,0,0,.842-1.713l17.654-25.212a5.563,5.563,0,0,0,2.727.714,5.547,5.547,0,0,0,4.938-3l12.825,4.668a56.932,56.932,0,0,1,2.29,12.889Zm-10.043-10.133v0a5.563,5.563,0,0,0-5.463-4.517,5.5,5.5,0,0,0-2.443.564l-16.44-19.593c.028-.135.052-.276.07-.421l24.906-6.674a5.589,5.589,0,0,0,5.03,3.186,5.58,5.58,0,0,0,4.824-2.793l4.344,1.582a5.611,5.611,0,0,0-.133,1.212,5.512,5.512,0,0,0,1.718,4.019l-16.412,23.438Zm-72.951-12.367h0a56.745,56.745,0,0,1,2.974-11.463,56.906,56.906,0,0,1,5.165-10.393,57.374,57.374,0,0,1,7.089-9.057,57.425,57.425,0,0,1,8.748-7.453l17.433,20.776a5.552,5.552,0,0,0-3.814,5.281,5.527,5.527,0,0,0,.42,2.124l-38.015,10.186Zm110.439-9.535h0l-11.812-4.3a5.583,5.583,0,0,0,.143-1.256,5.56,5.56,0,0,0-1.939-4.22l4.479-6.395.52-.139a56.745,56.745,0,0,1,8.611,16.309Zm-61.768-3.507h0a5.544,5.544,0,0,0-4.042-4.633l4.447-7.7a5.507,5.507,0,0,0,2.424.555,5.564,5.564,0,0,0,4.887-2.905l16.748,6.1a5.638,5.638,0,0,0-.086.981,5.637,5.637,0,0,0,.1,1.052l-24.476,6.559Zm39.577-4.57h0l-4.277-1.557a5.591,5.591,0,0,0,.2-1.483c0-.159-.006-.314-.018-.458l15.066-4.036-3.549,5.067a5.51,5.51,0,0,0-2.462-.573,5.541,5.541,0,0,0-4.958,3.04Zm-45.256-.258h0l-17.8-21.212,20.854,7.59a5.582,5.582,0,0,0-.11,1.107,5.555,5.555,0,0,0,1.97,4.247l-4.771,8.266h-.024Zm40.873-4.6h0a5.564,5.564,0,0,0-5.255-3.74,5.576,5.576,0,0,0-5.061,3.251l-16.656-6.062a5.584,5.584,0,0,0,.168-1.36,5.563,5.563,0,0,0-2.437-4.6l7.606-13.173a56.4,56.4,0,0,1,21.572,6.727,57.238,57.238,0,0,1,9.156,6.269,57.486,57.486,0,0,1,7.752,7.889l-.249.357-16.593,4.446Zm-37.372-10.336h0l-19.923-7.251a56.709,56.709,0,0,1,14.053-6.2,57.1,57.1,0,0,1,15.742-2.2c1.442,0,2.9.055,4.336.163l-7.319,12.676a5.548,5.548,0,0,0-1.883-.327,5.6,5.6,0,0,0-5.006,3.136Z" transform="translate(1462.276 -1793.013)" fill="#06d6a0" style="mix-blend-mode: multiply;isolation: isolate"/>
			</svg>